<mxfile host="app.diagrams.net" modified="2024-05-07T15:41:52.901Z" agent="Mozilla/5.0 (Windows NT 10.0; Win64; x64) AppleWebKit/537.36 (KHTML, like Gecko) Chrome/124.0.0.0 Safari/537.36" etag="yzNe_CX_bx5izYXm0ocW" version="24.3.1" type="device">
  <diagram name="Страница — 1" id="mKm0Wbh0GVt-GoVcY70z">
    <mxGraphModel dx="1122" dy="491" grid="1" gridSize="10" guides="1" tooltips="1" connect="1" arrows="1" fold="1" page="1" pageScale="1" pageWidth="3300" pageHeight="4681" math="0" shadow="0">
      <root>
        <mxCell id="0" />
        <mxCell id="1" parent="0" />
        <mxCell id="7VdPVA_-ikNsnJHRd5wN-1" value="0" style="ellipse;whiteSpace=wrap;html=1;aspect=fixed;" parent="1" vertex="1">
          <mxGeometry x="270" y="240" width="40" height="40" as="geometry" />
        </mxCell>
        <mxCell id="7VdPVA_-ikNsnJHRd5wN-2" value="1" style="ellipse;whiteSpace=wrap;html=1;aspect=fixed;" parent="1" vertex="1">
          <mxGeometry x="350" y="240" width="40" height="40" as="geometry" />
        </mxCell>
        <mxCell id="7VdPVA_-ikNsnJHRd5wN-3" value="" style="endArrow=classic;html=1;rounded=0;exitX=1;exitY=0.5;exitDx=0;exitDy=0;entryX=0;entryY=0.5;entryDx=0;entryDy=0;" parent="1" source="7VdPVA_-ikNsnJHRd5wN-1" target="7VdPVA_-ikNsnJHRd5wN-2" edge="1">
          <mxGeometry width="50" height="50" relative="1" as="geometry">
            <mxPoint x="660" y="340" as="sourcePoint" />
            <mxPoint x="340" y="260" as="targetPoint" />
          </mxGeometry>
        </mxCell>
        <mxCell id="7VdPVA_-ikNsnJHRd5wN-5" value="Z1" style="text;html=1;align=center;verticalAlign=middle;whiteSpace=wrap;rounded=0;" parent="1" vertex="1">
          <mxGeometry x="300" y="230" width="60" height="30" as="geometry" />
        </mxCell>
        <mxCell id="7VdPVA_-ikNsnJHRd5wN-6" value="2" style="ellipse;whiteSpace=wrap;html=1;aspect=fixed;" parent="1" vertex="1">
          <mxGeometry x="440" y="150" width="40" height="40" as="geometry" />
        </mxCell>
        <mxCell id="7VdPVA_-ikNsnJHRd5wN-7" value="3" style="ellipse;whiteSpace=wrap;html=1;aspect=fixed;" parent="1" vertex="1">
          <mxGeometry x="520" y="150" width="40" height="40" as="geometry" />
        </mxCell>
        <mxCell id="7VdPVA_-ikNsnJHRd5wN-8" value="" style="endArrow=classic;html=1;rounded=0;exitX=1;exitY=0.5;exitDx=0;exitDy=0;entryX=0;entryY=0.5;entryDx=0;entryDy=0;" parent="1" source="7VdPVA_-ikNsnJHRd5wN-6" target="7VdPVA_-ikNsnJHRd5wN-7" edge="1">
          <mxGeometry width="50" height="50" relative="1" as="geometry">
            <mxPoint x="830" y="250" as="sourcePoint" />
            <mxPoint x="510" y="170" as="targetPoint" />
          </mxGeometry>
        </mxCell>
        <mxCell id="7VdPVA_-ikNsnJHRd5wN-9" value="Z2" style="text;html=1;align=center;verticalAlign=middle;whiteSpace=wrap;rounded=0;" parent="1" vertex="1">
          <mxGeometry x="470" y="140" width="60" height="30" as="geometry" />
        </mxCell>
        <mxCell id="7VdPVA_-ikNsnJHRd5wN-10" value="4" style="ellipse;whiteSpace=wrap;html=1;aspect=fixed;" parent="1" vertex="1">
          <mxGeometry x="550" y="240" width="40" height="40" as="geometry" />
        </mxCell>
        <mxCell id="7VdPVA_-ikNsnJHRd5wN-11" value="5" style="ellipse;whiteSpace=wrap;html=1;aspect=fixed;" parent="1" vertex="1">
          <mxGeometry x="630" y="240" width="40" height="40" as="geometry" />
        </mxCell>
        <mxCell id="7VdPVA_-ikNsnJHRd5wN-12" value="" style="endArrow=classic;html=1;rounded=0;exitX=1;exitY=0.5;exitDx=0;exitDy=0;entryX=0;entryY=0.5;entryDx=0;entryDy=0;" parent="1" source="7VdPVA_-ikNsnJHRd5wN-10" target="7VdPVA_-ikNsnJHRd5wN-11" edge="1">
          <mxGeometry width="50" height="50" relative="1" as="geometry">
            <mxPoint x="940" y="340" as="sourcePoint" />
            <mxPoint x="620" y="260" as="targetPoint" />
          </mxGeometry>
        </mxCell>
        <mxCell id="7VdPVA_-ikNsnJHRd5wN-13" value="Z3" style="text;html=1;align=center;verticalAlign=middle;whiteSpace=wrap;rounded=0;" parent="1" vertex="1">
          <mxGeometry x="580" y="230" width="60" height="30" as="geometry" />
        </mxCell>
        <mxCell id="7VdPVA_-ikNsnJHRd5wN-14" value="6" style="ellipse;whiteSpace=wrap;html=1;aspect=fixed;" parent="1" vertex="1">
          <mxGeometry x="490" y="310" width="40" height="40" as="geometry" />
        </mxCell>
        <mxCell id="7VdPVA_-ikNsnJHRd5wN-15" value="7" style="ellipse;whiteSpace=wrap;html=1;aspect=fixed;" parent="1" vertex="1">
          <mxGeometry x="570" y="310" width="40" height="40" as="geometry" />
        </mxCell>
        <mxCell id="7VdPVA_-ikNsnJHRd5wN-16" value="" style="endArrow=classic;html=1;rounded=0;exitX=1;exitY=0.5;exitDx=0;exitDy=0;entryX=0;entryY=0.5;entryDx=0;entryDy=0;" parent="1" source="7VdPVA_-ikNsnJHRd5wN-14" target="7VdPVA_-ikNsnJHRd5wN-15" edge="1">
          <mxGeometry width="50" height="50" relative="1" as="geometry">
            <mxPoint x="880" y="410" as="sourcePoint" />
            <mxPoint x="560" y="330" as="targetPoint" />
          </mxGeometry>
        </mxCell>
        <mxCell id="7VdPVA_-ikNsnJHRd5wN-17" value="Z4" style="text;html=1;align=center;verticalAlign=middle;whiteSpace=wrap;rounded=0;" parent="1" vertex="1">
          <mxGeometry x="520" y="300" width="60" height="30" as="geometry" />
        </mxCell>
        <mxCell id="7VdPVA_-ikNsnJHRd5wN-18" value="8" style="ellipse;whiteSpace=wrap;html=1;aspect=fixed;" parent="1" vertex="1">
          <mxGeometry x="670" y="300" width="40" height="40" as="geometry" />
        </mxCell>
        <mxCell id="7VdPVA_-ikNsnJHRd5wN-19" value="9" style="ellipse;whiteSpace=wrap;html=1;aspect=fixed;" parent="1" vertex="1">
          <mxGeometry x="750" y="300" width="40" height="40" as="geometry" />
        </mxCell>
        <mxCell id="7VdPVA_-ikNsnJHRd5wN-20" value="" style="endArrow=classic;html=1;rounded=0;exitX=1;exitY=0.5;exitDx=0;exitDy=0;entryX=0;entryY=0.5;entryDx=0;entryDy=0;" parent="1" source="7VdPVA_-ikNsnJHRd5wN-18" target="7VdPVA_-ikNsnJHRd5wN-19" edge="1">
          <mxGeometry width="50" height="50" relative="1" as="geometry">
            <mxPoint x="1060" y="400" as="sourcePoint" />
            <mxPoint x="740" y="320" as="targetPoint" />
          </mxGeometry>
        </mxCell>
        <mxCell id="7VdPVA_-ikNsnJHRd5wN-21" value="Z5" style="text;html=1;align=center;verticalAlign=middle;whiteSpace=wrap;rounded=0;" parent="1" vertex="1">
          <mxGeometry x="700" y="290" width="60" height="30" as="geometry" />
        </mxCell>
        <mxCell id="7VdPVA_-ikNsnJHRd5wN-22" value="10" style="ellipse;whiteSpace=wrap;html=1;aspect=fixed;" parent="1" vertex="1">
          <mxGeometry x="820" y="330" width="40" height="40" as="geometry" />
        </mxCell>
        <mxCell id="7VdPVA_-ikNsnJHRd5wN-23" value="11" style="ellipse;whiteSpace=wrap;html=1;aspect=fixed;" parent="1" vertex="1">
          <mxGeometry x="900" y="330" width="40" height="40" as="geometry" />
        </mxCell>
        <mxCell id="7VdPVA_-ikNsnJHRd5wN-24" value="" style="endArrow=classic;html=1;rounded=0;exitX=1;exitY=0.5;exitDx=0;exitDy=0;entryX=0;entryY=0.5;entryDx=0;entryDy=0;" parent="1" source="7VdPVA_-ikNsnJHRd5wN-22" target="7VdPVA_-ikNsnJHRd5wN-23" edge="1">
          <mxGeometry width="50" height="50" relative="1" as="geometry">
            <mxPoint x="1210" y="430" as="sourcePoint" />
            <mxPoint x="890" y="350" as="targetPoint" />
          </mxGeometry>
        </mxCell>
        <mxCell id="7VdPVA_-ikNsnJHRd5wN-25" value="Z6" style="text;html=1;align=center;verticalAlign=middle;whiteSpace=wrap;rounded=0;" parent="1" vertex="1">
          <mxGeometry x="850" y="320" width="60" height="30" as="geometry" />
        </mxCell>
        <mxCell id="7VdPVA_-ikNsnJHRd5wN-26" value="12" style="ellipse;whiteSpace=wrap;html=1;aspect=fixed;" parent="1" vertex="1">
          <mxGeometry x="890" y="250" width="40" height="40" as="geometry" />
        </mxCell>
        <mxCell id="7VdPVA_-ikNsnJHRd5wN-27" value="13" style="ellipse;whiteSpace=wrap;html=1;aspect=fixed;" parent="1" vertex="1">
          <mxGeometry x="970" y="250" width="40" height="40" as="geometry" />
        </mxCell>
        <mxCell id="7VdPVA_-ikNsnJHRd5wN-28" value="" style="endArrow=classic;html=1;rounded=0;exitX=1;exitY=0.5;exitDx=0;exitDy=0;entryX=0;entryY=0.5;entryDx=0;entryDy=0;" parent="1" source="7VdPVA_-ikNsnJHRd5wN-26" target="7VdPVA_-ikNsnJHRd5wN-27" edge="1">
          <mxGeometry width="50" height="50" relative="1" as="geometry">
            <mxPoint x="1280" y="350" as="sourcePoint" />
            <mxPoint x="960" y="270" as="targetPoint" />
          </mxGeometry>
        </mxCell>
        <mxCell id="7VdPVA_-ikNsnJHRd5wN-29" value="Z7" style="text;html=1;align=center;verticalAlign=middle;whiteSpace=wrap;rounded=0;" parent="1" vertex="1">
          <mxGeometry x="900" y="240" width="60" height="30" as="geometry" />
        </mxCell>
        <mxCell id="7VdPVA_-ikNsnJHRd5wN-30" value="14" style="ellipse;whiteSpace=wrap;html=1;aspect=fixed;" parent="1" vertex="1">
          <mxGeometry x="850" y="400" width="40" height="40" as="geometry" />
        </mxCell>
        <mxCell id="7VdPVA_-ikNsnJHRd5wN-31" value="15" style="ellipse;whiteSpace=wrap;html=1;aspect=fixed;" parent="1" vertex="1">
          <mxGeometry x="930" y="400" width="40" height="40" as="geometry" />
        </mxCell>
        <mxCell id="7VdPVA_-ikNsnJHRd5wN-32" value="" style="endArrow=classic;html=1;rounded=0;exitX=1;exitY=0.5;exitDx=0;exitDy=0;entryX=0;entryY=0.5;entryDx=0;entryDy=0;" parent="1" source="7VdPVA_-ikNsnJHRd5wN-30" target="7VdPVA_-ikNsnJHRd5wN-31" edge="1">
          <mxGeometry width="50" height="50" relative="1" as="geometry">
            <mxPoint x="1240" y="500" as="sourcePoint" />
            <mxPoint x="920" y="420" as="targetPoint" />
          </mxGeometry>
        </mxCell>
        <mxCell id="7VdPVA_-ikNsnJHRd5wN-33" value="Z8" style="text;html=1;align=center;verticalAlign=middle;whiteSpace=wrap;rounded=0;" parent="1" vertex="1">
          <mxGeometry x="880" y="390" width="60" height="30" as="geometry" />
        </mxCell>
        <mxCell id="7VdPVA_-ikNsnJHRd5wN-34" value="16" style="ellipse;whiteSpace=wrap;html=1;aspect=fixed;" parent="1" vertex="1">
          <mxGeometry x="1010" y="400" width="40" height="40" as="geometry" />
        </mxCell>
        <mxCell id="7VdPVA_-ikNsnJHRd5wN-35" value="17" style="ellipse;whiteSpace=wrap;html=1;aspect=fixed;" parent="1" vertex="1">
          <mxGeometry x="1090" y="400" width="40" height="40" as="geometry" />
        </mxCell>
        <mxCell id="7VdPVA_-ikNsnJHRd5wN-36" value="" style="endArrow=classic;html=1;rounded=0;exitX=1;exitY=0.5;exitDx=0;exitDy=0;entryX=0;entryY=0.5;entryDx=0;entryDy=0;" parent="1" source="7VdPVA_-ikNsnJHRd5wN-34" target="7VdPVA_-ikNsnJHRd5wN-35" edge="1">
          <mxGeometry width="50" height="50" relative="1" as="geometry">
            <mxPoint x="1400" y="500" as="sourcePoint" />
            <mxPoint x="1080" y="420" as="targetPoint" />
          </mxGeometry>
        </mxCell>
        <mxCell id="7VdPVA_-ikNsnJHRd5wN-37" value="Z9" style="text;html=1;align=center;verticalAlign=middle;whiteSpace=wrap;rounded=0;" parent="1" vertex="1">
          <mxGeometry x="1040" y="390" width="60" height="30" as="geometry" />
        </mxCell>
        <mxCell id="7VdPVA_-ikNsnJHRd5wN-38" value="18" style="ellipse;whiteSpace=wrap;html=1;aspect=fixed;" parent="1" vertex="1">
          <mxGeometry x="1180" y="400" width="40" height="40" as="geometry" />
        </mxCell>
        <mxCell id="7VdPVA_-ikNsnJHRd5wN-39" value="19" style="ellipse;whiteSpace=wrap;html=1;aspect=fixed;" parent="1" vertex="1">
          <mxGeometry x="1260" y="400" width="40" height="40" as="geometry" />
        </mxCell>
        <mxCell id="7VdPVA_-ikNsnJHRd5wN-40" value="" style="endArrow=classic;html=1;rounded=0;exitX=1;exitY=0.5;exitDx=0;exitDy=0;entryX=0;entryY=0.5;entryDx=0;entryDy=0;" parent="1" source="7VdPVA_-ikNsnJHRd5wN-38" target="7VdPVA_-ikNsnJHRd5wN-39" edge="1">
          <mxGeometry width="50" height="50" relative="1" as="geometry">
            <mxPoint x="1570" y="500" as="sourcePoint" />
            <mxPoint x="1250" y="420" as="targetPoint" />
          </mxGeometry>
        </mxCell>
        <mxCell id="7VdPVA_-ikNsnJHRd5wN-41" value="Z10" style="text;html=1;align=center;verticalAlign=middle;whiteSpace=wrap;rounded=0;" parent="1" vertex="1">
          <mxGeometry x="1210" y="390" width="60" height="30" as="geometry" />
        </mxCell>
        <mxCell id="7VdPVA_-ikNsnJHRd5wN-42" value="20" style="ellipse;whiteSpace=wrap;html=1;aspect=fixed;" parent="1" vertex="1">
          <mxGeometry x="1200" y="300" width="40" height="40" as="geometry" />
        </mxCell>
        <mxCell id="7VdPVA_-ikNsnJHRd5wN-43" value="21" style="ellipse;whiteSpace=wrap;html=1;aspect=fixed;" parent="1" vertex="1">
          <mxGeometry x="1280" y="300" width="40" height="40" as="geometry" />
        </mxCell>
        <mxCell id="7VdPVA_-ikNsnJHRd5wN-44" value="" style="endArrow=classic;html=1;rounded=0;exitX=1;exitY=0.5;exitDx=0;exitDy=0;entryX=0;entryY=0.5;entryDx=0;entryDy=0;" parent="1" source="7VdPVA_-ikNsnJHRd5wN-42" target="7VdPVA_-ikNsnJHRd5wN-43" edge="1">
          <mxGeometry width="50" height="50" relative="1" as="geometry">
            <mxPoint x="1590" y="400" as="sourcePoint" />
            <mxPoint x="1270" y="320" as="targetPoint" />
          </mxGeometry>
        </mxCell>
        <mxCell id="7VdPVA_-ikNsnJHRd5wN-45" value="Z11" style="text;html=1;align=center;verticalAlign=middle;whiteSpace=wrap;rounded=0;" parent="1" vertex="1">
          <mxGeometry x="1230" y="290" width="60" height="30" as="geometry" />
        </mxCell>
        <mxCell id="7VdPVA_-ikNsnJHRd5wN-46" value="22" style="ellipse;whiteSpace=wrap;html=1;aspect=fixed;" parent="1" vertex="1">
          <mxGeometry x="1380" y="300" width="40" height="40" as="geometry" />
        </mxCell>
        <mxCell id="7VdPVA_-ikNsnJHRd5wN-47" value="23" style="ellipse;whiteSpace=wrap;html=1;aspect=fixed;" parent="1" vertex="1">
          <mxGeometry x="1460" y="300" width="40" height="40" as="geometry" />
        </mxCell>
        <mxCell id="7VdPVA_-ikNsnJHRd5wN-48" value="" style="endArrow=classic;html=1;rounded=0;exitX=1;exitY=0.5;exitDx=0;exitDy=0;entryX=0;entryY=0.5;entryDx=0;entryDy=0;" parent="1" source="7VdPVA_-ikNsnJHRd5wN-46" target="7VdPVA_-ikNsnJHRd5wN-47" edge="1">
          <mxGeometry width="50" height="50" relative="1" as="geometry">
            <mxPoint x="1770" y="400" as="sourcePoint" />
            <mxPoint x="1450" y="320" as="targetPoint" />
          </mxGeometry>
        </mxCell>
        <mxCell id="7VdPVA_-ikNsnJHRd5wN-49" value="Z12" style="text;html=1;align=center;verticalAlign=middle;whiteSpace=wrap;rounded=0;" parent="1" vertex="1">
          <mxGeometry x="1410" y="290" width="60" height="30" as="geometry" />
        </mxCell>
        <mxCell id="7VdPVA_-ikNsnJHRd5wN-50" value="24" style="ellipse;whiteSpace=wrap;html=1;aspect=fixed;" parent="1" vertex="1">
          <mxGeometry x="1430" y="400" width="40" height="40" as="geometry" />
        </mxCell>
        <mxCell id="7VdPVA_-ikNsnJHRd5wN-51" value="25" style="ellipse;whiteSpace=wrap;html=1;aspect=fixed;" parent="1" vertex="1">
          <mxGeometry x="1510" y="400" width="40" height="40" as="geometry" />
        </mxCell>
        <mxCell id="7VdPVA_-ikNsnJHRd5wN-52" value="" style="endArrow=classic;html=1;rounded=0;exitX=1;exitY=0.5;exitDx=0;exitDy=0;entryX=0;entryY=0.5;entryDx=0;entryDy=0;" parent="1" source="7VdPVA_-ikNsnJHRd5wN-50" target="7VdPVA_-ikNsnJHRd5wN-51" edge="1">
          <mxGeometry width="50" height="50" relative="1" as="geometry">
            <mxPoint x="1820" y="500" as="sourcePoint" />
            <mxPoint x="1500" y="420" as="targetPoint" />
          </mxGeometry>
        </mxCell>
        <mxCell id="7VdPVA_-ikNsnJHRd5wN-53" value="Z13" style="text;html=1;align=center;verticalAlign=middle;whiteSpace=wrap;rounded=0;" parent="1" vertex="1">
          <mxGeometry x="1460" y="390" width="60" height="30" as="geometry" />
        </mxCell>
        <mxCell id="7VdPVA_-ikNsnJHRd5wN-54" value="" style="endArrow=block;dashed=1;endFill=0;endSize=12;html=1;rounded=0;exitX=1;exitY=0.5;exitDx=0;exitDy=0;entryX=0;entryY=0.5;entryDx=0;entryDy=0;" parent="1" source="7VdPVA_-ikNsnJHRd5wN-2" target="7VdPVA_-ikNsnJHRd5wN-6" edge="1">
          <mxGeometry width="160" relative="1" as="geometry">
            <mxPoint x="330" y="350" as="sourcePoint" />
            <mxPoint x="490" y="350" as="targetPoint" />
          </mxGeometry>
        </mxCell>
        <mxCell id="7VdPVA_-ikNsnJHRd5wN-55" value="" style="endArrow=block;dashed=1;endFill=0;endSize=12;html=1;rounded=0;exitX=1;exitY=0.5;exitDx=0;exitDy=0;entryX=0;entryY=0.5;entryDx=0;entryDy=0;" parent="1" source="7VdPVA_-ikNsnJHRd5wN-2" target="7VdPVA_-ikNsnJHRd5wN-10" edge="1">
          <mxGeometry width="160" relative="1" as="geometry">
            <mxPoint x="330" y="350" as="sourcePoint" />
            <mxPoint x="490" y="350" as="targetPoint" />
          </mxGeometry>
        </mxCell>
        <mxCell id="7VdPVA_-ikNsnJHRd5wN-56" value="" style="endArrow=block;dashed=1;endFill=0;endSize=12;html=1;rounded=0;exitX=1;exitY=0.5;exitDx=0;exitDy=0;entryX=0;entryY=0;entryDx=0;entryDy=0;" parent="1" source="7VdPVA_-ikNsnJHRd5wN-2" target="7VdPVA_-ikNsnJHRd5wN-14" edge="1">
          <mxGeometry width="160" relative="1" as="geometry">
            <mxPoint x="330" y="350" as="sourcePoint" />
            <mxPoint x="490" y="350" as="targetPoint" />
          </mxGeometry>
        </mxCell>
        <mxCell id="7VdPVA_-ikNsnJHRd5wN-57" value="" style="endArrow=block;dashed=1;endFill=0;endSize=12;html=1;rounded=0;exitX=0.5;exitY=1;exitDx=0;exitDy=0;entryX=0;entryY=0;entryDx=0;entryDy=0;" parent="1" source="7VdPVA_-ikNsnJHRd5wN-7" target="7VdPVA_-ikNsnJHRd5wN-10" edge="1">
          <mxGeometry width="160" relative="1" as="geometry">
            <mxPoint x="500" y="360" as="sourcePoint" />
            <mxPoint x="660" y="360" as="targetPoint" />
          </mxGeometry>
        </mxCell>
        <mxCell id="7VdPVA_-ikNsnJHRd5wN-58" value="" style="endArrow=block;dashed=1;endFill=0;endSize=12;html=1;rounded=0;exitX=0.5;exitY=1;exitDx=0;exitDy=0;entryX=0;entryY=0;entryDx=0;entryDy=0;" parent="1" source="7VdPVA_-ikNsnJHRd5wN-7" target="7VdPVA_-ikNsnJHRd5wN-14" edge="1">
          <mxGeometry width="160" relative="1" as="geometry">
            <mxPoint x="500" y="360" as="sourcePoint" />
            <mxPoint x="660" y="360" as="targetPoint" />
          </mxGeometry>
        </mxCell>
        <mxCell id="7VdPVA_-ikNsnJHRd5wN-59" value="" style="endArrow=block;dashed=1;endFill=0;endSize=12;html=1;rounded=0;exitX=1;exitY=0.5;exitDx=0;exitDy=0;entryX=0;entryY=0.5;entryDx=0;entryDy=0;" parent="1" source="7VdPVA_-ikNsnJHRd5wN-15" target="7VdPVA_-ikNsnJHRd5wN-18" edge="1">
          <mxGeometry width="160" relative="1" as="geometry">
            <mxPoint x="750" y="410" as="sourcePoint" />
            <mxPoint x="910" y="410" as="targetPoint" />
          </mxGeometry>
        </mxCell>
        <mxCell id="7VdPVA_-ikNsnJHRd5wN-60" value="" style="endArrow=block;dashed=1;endFill=0;endSize=12;html=1;rounded=0;exitX=1;exitY=0.5;exitDx=0;exitDy=0;entryX=0;entryY=0.5;entryDx=0;entryDy=0;" parent="1" source="7VdPVA_-ikNsnJHRd5wN-19" target="7VdPVA_-ikNsnJHRd5wN-22" edge="1">
          <mxGeometry width="160" relative="1" as="geometry">
            <mxPoint x="960" y="410" as="sourcePoint" />
            <mxPoint x="1120" y="410" as="targetPoint" />
          </mxGeometry>
        </mxCell>
        <mxCell id="7VdPVA_-ikNsnJHRd5wN-61" value="" style="endArrow=block;dashed=1;endFill=0;endSize=12;html=1;rounded=0;exitX=1;exitY=0.5;exitDx=0;exitDy=0;entryX=1;entryY=1;entryDx=0;entryDy=0;" parent="1" source="7VdPVA_-ikNsnJHRd5wN-23" target="7VdPVA_-ikNsnJHRd5wN-26" edge="1">
          <mxGeometry width="160" relative="1" as="geometry">
            <mxPoint x="960" y="430" as="sourcePoint" />
            <mxPoint x="1120" y="430" as="targetPoint" />
          </mxGeometry>
        </mxCell>
        <mxCell id="7VdPVA_-ikNsnJHRd5wN-62" value="" style="endArrow=block;dashed=1;endFill=0;endSize=12;html=1;rounded=0;exitX=1;exitY=0.5;exitDx=0;exitDy=0;entryX=0;entryY=0.5;entryDx=0;entryDy=0;" parent="1" source="7VdPVA_-ikNsnJHRd5wN-19" target="7VdPVA_-ikNsnJHRd5wN-26" edge="1">
          <mxGeometry width="160" relative="1" as="geometry">
            <mxPoint x="960" y="430" as="sourcePoint" />
            <mxPoint x="1120" y="430" as="targetPoint" />
          </mxGeometry>
        </mxCell>
        <mxCell id="7VdPVA_-ikNsnJHRd5wN-63" value="" style="endArrow=block;dashed=1;endFill=0;endSize=12;html=1;rounded=0;exitX=1;exitY=0.5;exitDx=0;exitDy=0;entryX=0;entryY=0.5;entryDx=0;entryDy=0;" parent="1" source="7VdPVA_-ikNsnJHRd5wN-15" target="7VdPVA_-ikNsnJHRd5wN-30" edge="1">
          <mxGeometry width="160" relative="1" as="geometry">
            <mxPoint x="830" y="600" as="sourcePoint" />
            <mxPoint x="990" y="600" as="targetPoint" />
          </mxGeometry>
        </mxCell>
        <mxCell id="7VdPVA_-ikNsnJHRd5wN-64" value="" style="endArrow=block;dashed=1;endFill=0;endSize=12;html=1;rounded=0;exitX=0.5;exitY=1;exitDx=0;exitDy=0;entryX=0;entryY=0.5;entryDx=0;entryDy=0;" parent="1" source="7VdPVA_-ikNsnJHRd5wN-27" target="7VdPVA_-ikNsnJHRd5wN-33" edge="1">
          <mxGeometry width="160" relative="1" as="geometry">
            <mxPoint x="1010" y="600" as="sourcePoint" />
            <mxPoint x="1170" y="600" as="targetPoint" />
            <Array as="points">
              <mxPoint x="950" y="370" />
            </Array>
          </mxGeometry>
        </mxCell>
        <mxCell id="7VdPVA_-ikNsnJHRd5wN-65" value="" style="endArrow=block;dashed=1;endFill=0;endSize=12;html=1;rounded=0;exitX=1;exitY=0.5;exitDx=0;exitDy=0;entryX=0;entryY=0.5;entryDx=0;entryDy=0;" parent="1" source="7VdPVA_-ikNsnJHRd5wN-31" target="7VdPVA_-ikNsnJHRd5wN-34" edge="1">
          <mxGeometry width="160" relative="1" as="geometry">
            <mxPoint x="1010" y="430" as="sourcePoint" />
            <mxPoint x="1170" y="430" as="targetPoint" />
          </mxGeometry>
        </mxCell>
        <mxCell id="7VdPVA_-ikNsnJHRd5wN-66" value="" style="endArrow=block;dashed=1;endFill=0;endSize=12;html=1;rounded=0;exitX=1;exitY=0.5;exitDx=0;exitDy=0;entryX=0;entryY=0.5;entryDx=0;entryDy=0;" parent="1" source="7VdPVA_-ikNsnJHRd5wN-35" target="7VdPVA_-ikNsnJHRd5wN-38" edge="1">
          <mxGeometry width="160" relative="1" as="geometry">
            <mxPoint x="1060" y="600" as="sourcePoint" />
            <mxPoint x="1220" y="600" as="targetPoint" />
          </mxGeometry>
        </mxCell>
        <mxCell id="7VdPVA_-ikNsnJHRd5wN-67" value="" style="endArrow=block;dashed=1;endFill=0;endSize=12;html=1;rounded=0;exitX=1;exitY=0.5;exitDx=0;exitDy=0;entryX=0;entryY=0.5;entryDx=0;entryDy=0;" parent="1" source="7VdPVA_-ikNsnJHRd5wN-27" target="7VdPVA_-ikNsnJHRd5wN-42" edge="1">
          <mxGeometry width="160" relative="1" as="geometry">
            <mxPoint x="1290" y="600" as="sourcePoint" />
            <mxPoint x="1450" y="600" as="targetPoint" />
          </mxGeometry>
        </mxCell>
        <mxCell id="7VdPVA_-ikNsnJHRd5wN-68" value="" style="endArrow=block;dashed=1;endFill=0;endSize=12;html=1;rounded=0;exitX=1;exitY=0.5;exitDx=0;exitDy=0;entryX=0;entryY=0.5;entryDx=0;entryDy=0;" parent="1" source="7VdPVA_-ikNsnJHRd5wN-23" target="7VdPVA_-ikNsnJHRd5wN-42" edge="1">
          <mxGeometry width="160" relative="1" as="geometry">
            <mxPoint x="1290" y="600" as="sourcePoint" />
            <mxPoint x="1450" y="600" as="targetPoint" />
          </mxGeometry>
        </mxCell>
        <mxCell id="7VdPVA_-ikNsnJHRd5wN-69" value="" style="endArrow=block;dashed=1;endFill=0;endSize=12;html=1;rounded=0;exitX=1;exitY=0.5;exitDx=0;exitDy=0;entryX=1;entryY=1;entryDx=0;entryDy=0;" parent="1" source="7VdPVA_-ikNsnJHRd5wN-39" target="7VdPVA_-ikNsnJHRd5wN-42" edge="1">
          <mxGeometry width="160" relative="1" as="geometry">
            <mxPoint x="1290" y="600" as="sourcePoint" />
            <mxPoint x="1450" y="600" as="targetPoint" />
            <Array as="points">
              <mxPoint x="1290" y="370" />
            </Array>
          </mxGeometry>
        </mxCell>
        <mxCell id="7VdPVA_-ikNsnJHRd5wN-70" value="" style="endArrow=block;dashed=1;endFill=0;endSize=12;html=1;rounded=0;exitX=1;exitY=0.5;exitDx=0;exitDy=0;entryX=0;entryY=0.5;entryDx=0;entryDy=0;" parent="1" source="7VdPVA_-ikNsnJHRd5wN-43" target="7VdPVA_-ikNsnJHRd5wN-46" edge="1">
          <mxGeometry width="160" relative="1" as="geometry">
            <mxPoint x="1530" y="530" as="sourcePoint" />
            <mxPoint x="1690" y="530" as="targetPoint" />
          </mxGeometry>
        </mxCell>
        <mxCell id="7VdPVA_-ikNsnJHRd5wN-71" value="" style="endArrow=block;dashed=1;endFill=0;endSize=12;html=1;rounded=0;exitX=1;exitY=0.5;exitDx=0;exitDy=0;entryX=0;entryY=0.5;entryDx=0;entryDy=0;" parent="1" source="7VdPVA_-ikNsnJHRd5wN-43" target="7VdPVA_-ikNsnJHRd5wN-50" edge="1">
          <mxGeometry width="160" relative="1" as="geometry">
            <mxPoint x="1470" y="750" as="sourcePoint" />
            <mxPoint x="1630" y="750" as="targetPoint" />
          </mxGeometry>
        </mxCell>
        <mxCell id="7VdPVA_-ikNsnJHRd5wN-72" value="" style="endArrow=block;dashed=1;endFill=0;endSize=12;html=1;rounded=0;exitX=1;exitY=0.5;exitDx=0;exitDy=0;entryX=0;entryY=0.5;entryDx=0;entryDy=0;" parent="1" source="7VdPVA_-ikNsnJHRd5wN-47" target="7VdPVA_-ikNsnJHRd5wN-53" edge="1">
          <mxGeometry width="160" relative="1" as="geometry">
            <mxPoint x="1470" y="750" as="sourcePoint" />
            <mxPoint x="1630" y="750" as="targetPoint" />
            <Array as="points">
              <mxPoint x="1480" y="370" />
            </Array>
          </mxGeometry>
        </mxCell>
      </root>
    </mxGraphModel>
  </diagram>
</mxfile>
